<svg xmlns="http://www.w3.org/2000/svg" width="400" height="100" viewBox="0 0 400 100"><path fill="#5755A3" d="M14.56 91c.42 3.78 3.85 6.84 7.65 6.84h41.33c3.8 0 7.23-3.06 7.65-6.84l6.13-55.15h-68.88l6.12 55.15zm7.66-75.15l4.73-13.93 30.98-.98 5.6 13.61 13.77-.43c6.88-.22 7.32 13.55 7.32 13.55l-41.31 1.31-41.3 1.29s-.44-13.77 6.45-13.99l13.76-.43zm6.88-.66h27.55l-3.44-6.89h-20.66l-3.45 6.89z"/><path d="M137.51 93.07c-5.3 2.59-13.07 4.93-20.1 4.93-14.67 0-20.22-5.92-20.22-19.85v-32.3c0-.74 0-1.23-.99-1.23h-8.63v-10.98c10.85-1.23 15.17-6.66 16.52-20.1h11.71v17.51c0 .86 0 1.23.99 1.23h17.39v12.33h-18.37v29.47c0 7.27 1.73 10.11 8.38 10.11 3.45 0 7.03-.86 9.99-1.97l3.33 10.85zm6.03 3.45v-9.99l5.55-.74c1.73-.25 1.97-.62 1.97-2.46v-36.13c0-1.36-.37-2.22-1.6-2.59l-6.66-2.34 1.36-9.99h21.7l1.48 9.86h.74c4.07-6.29 9.49-11.1 17.39-11.1 2.84 0 8.51.49 10.73 1.11v22.45l-14.8-.5-1.23-6.53c-.25-1.11-.62-1.35-1.6-1.35-3.21 0-7.03 2.71-8.88 4.31v32.67c0 1.97.12 2.34 1.97 2.46l12.21.99v9.86h-40.33zm96.66 0l-1.23-6.66-.62-.12c-4.68 4.56-10.85 8.26-20.71 8.26-15.54 0-18-10.61-18-18.25 0-12.33 7.65-18 23.06-18.99l14.18-.99v-6.77c0-5.8-.62-9.74-8.26-9.74-5.92 0-9 .86-9 8.26l-17.38-1.48c0-16.65 15.17-18.99 26.51-18.99 18.74 0 26.26 5.06 26.26 22.32v29.96c0 1.97.12 2.22 1.97 2.46l5.92.99v9.74h-22.7zm-3.33-26.51l-8.38.62c-7.27.49-9.86 2.34-9.86 7.27s2.96 6.78 7.03 6.78c4.19 0 8.38-2.34 11.22-4.44v-10.23zm68.31-18.37l-1.23-6.41c-.12-.99-.37-1.48-1.23-1.73-1.6-.49-4.56-.98-7.89-.98-6.16 0-9.62 2.34-9.62 6.29 0 5.06 6.78 6.16 14.3 7.89 9.74 2.22 20.71 5.67 20.71 20.1 0 15.04-12.21 21.21-27.87 21.21-11.22 0-22.19-2.96-24.41-4.44v-17.89l13.19.99 1.23 7.03c.12 1.11.37 1.6 1.48 1.85 1.48.49 4.81 1.23 9.49 1.23 6.54 0 10.23-1.85 10.23-6.41 0-4.93-4.93-6.41-11.22-7.52-10.36-1.85-23.92-4.07-23.92-20.22 0-15.29 13.07-21.58 27.25-21.58 9.74 0 19.23 2.22 22.69 3.58v17.87l-13.18-.86zm67.06 44.88v-40.2c0-3.7-.37-10.48-6.54-10.48-4.56 0-9.74 2.34-12.82 4.56v33.04c0 1.97.12 2.22 1.97 2.47l5.92.86v9.74h-34.03v-9.74l5.55-.86c1.73-.25 1.97-.62 1.97-2.47v-65.1c0-1.36-.37-2.22-1.6-2.59l-6.78-2.34 1.36-9.99h25.4v34.89l.62.12c5.55-4.56 11.96-7.4 19.73-7.4 13.07 0 17.88 7.15 17.88 19.97v32.43c0 1.97.12 2.22 1.97 2.47l6.17.86v9.74h-26.77z" fill="#A59AFF"/></svg>